<?xml version="1.0" encoding="UTF-8"?>
<svg width="76px" height="79px" viewBox="0 0 76 79" version="1.1" xmlns="http://www.w3.org/2000/svg" xmlns:xlink="http://www.w3.org/1999/xlink">
    <!-- Generator: Sketch 55.2 (78181) - https://sketchapp.com -->
    <title>poodle</title>
    <desc>Created with Sketch.</desc>
    <defs>
        <rect id="path-1" x="0.16" y="0.33" width="76.036" height="78.943"></rect>
    </defs>
    <g id="poodle" stroke="none" stroke-width="1" fill="none" fill-rule="evenodd">
        <g id="noun_Poodle_22540">
            <g id="Group">
                <g id="Clipped">
                    <mask id="mask-2" fill="white">
                        <use xlink:href="#path-1"></use>
                    </mask>
                    <g id="b"></g>
                    <path d="M69.365,15.862 C68.684,15.52 67.664,14.501 67.552,13.762 C67.418,12.895 67.268,9.739 66.985,8.944 C66.874,8.633 66.628,5.28 65.327,3.885 C63.342,1.76 62.432,2.914 60.649,1.901 C59.178,1.065 58.241,0.308 55.971,0.478 C48.319,1.05 47.8212396,7.62549609 45.8372396,10.4584961 C44.7552396,12.0034961 42.4574382,14.1835938 42.08,15.365 C40.9728139,18.8305652 44.207,21.035 44.207,21.035 C43.811,21.148 42.548,22.439 40.521,24.719 C37.305,28.34 36.371,34.285 36.371,34.285 C36.371,34.285 30.644,34 27.697,34.312 C24.748,34.624 22.65,34.794 22.65,34.794 L21.648,33.161 C23.627,31.472 24.912,28.968 24.912,26.136 C24.912,21.048 20.854,16.923 15.85,16.923 C10.846,16.923 6.788,21.048 6.788,26.136 C6.788,31.224 10.846,35.349 15.85,35.349 C16.599,35.349 17.316,35.23 18.012,35.056 C18.465,35.947 19.096,37.251 18.908,37.29 C18.625,37.347 17.095,39.161 16.811,41.087 C16.527,43.015 16.754,47.665 16.527,50.159 C16.3,52.653 15.621,55.317 15.621,55.317 L10.701,60.901 C9.697,60.286 8.562,59.905 7.338,59.905 C3.443,59.905 0.285,63.436 0.285,67.796 C0.285,70.837 1.841,73.439 4.097,74.749 L4.097,76.673 L4.097,79.146 L12.649,79.146 C12.649,77.351 11.622,75.812 10.133,75.037 C12.636,73.826 14.391,71.043 14.391,67.797 C14.391,66.412 14.043,65.129 13.485,63.998 C14.844,63.18 18.7,60.744 20.157,59.627 C21.857,58.324 24.296,54.354 25.712,52.258 C27.131,50.16 28.618,47.963 28.618,47.963 L36.979,47.963 C36.979,47.963 38.5,52 44,54 C49.5,56 56.255,53.916 56.255,53.916 L56.842,59.793 C54.571,61.174 52.994,63.992 52.994,67.283 C52.994,70.472 54.479,73.203 56.641,74.621 L56.64,74.666 L56.679,74.666 L56.679,79.146 L65.553,79.146 C65.553,77.257 64.422,75.638 62.804,74.912 C65.195,73.584 66.863,70.678 66.863,67.283 C66.863,63.457 64.742,60.265 61.857,59.248 L62.505,52.768 C64.835,52.256 66.762,50.801 68.286,48.403 C70.572,44.806 71.5477702,42.3382161 71.590332,38.4720052 C71.6328939,34.6057943 71.2484538,33.4054362 69.8994954,30.8860677 C68.5505371,28.3666992 67.4731445,26.3414714 66.756,24.875 C66.0388555,23.4085286 65.99,22.039 65.99,22.039 L72.879,21.926 C72.879,21.926 75.826,20.453 76.025,18.197 C76.127,17.06 76.027,16.938 76.027,16.938 C76.027,16.938 70.399,16.377 69.365,15.862 Z" id="Path" fill="#000000" fill-rule="nonzero" mask="url(#mask-2)"></path>
                </g>
            </g>
        </g>
    </g>
</svg>
